<svg width="16" height="16" viewBox="0 0 16 16" xmlns="http://www.w3.org/2000/svg">
  <defs>
    <mask id="cloudArrowCutActionLight" maskUnits="userSpaceOnUse" maskContentUnits="userSpaceOnUse" x="0" y="0" width="16" height="16">
      <rect width="16" height="16" fill="black"></rect>
      <path fill="white" transform="translate(16 0) scale(-1 1)" d="M3.05 15.35
               C1.15 15.35 0 13.98 0 12.05
               C0 10.35 1.02 9.08 2.72 8.62
               C2.68 8.4 2.66 8.18 2.66 7.95
               C2.66 5.55 4.62 3.66 6.98 3.66
               C7.24 3.66 7.49 3.68 7.73 3.73
               C8.35 2.5 9.64 1.7 11.1 1.7
               C12.9 1.7 14.35 2.96 14.72 4.66
               C15.48 4.9 16 5.62 16 6.45
               C16 7.06 15.72 7.61 15.27 7.97
               C15.66 8.58 15.88 9.32 15.88 10.12
               C15.88 13.02 13.65 15.35 10.86 15.35
               C9.88 15.35 9.11 15.05 8.45 14.63
               C7.76 15.05 7.03 15.35 6.15 15.35
               Z"></path>
      <path fill="black" d="M-2 6.4
               H7.08
               L5.95 5.27
               C5.63 4.95 5.63 4.43 5.95 4.11
               C6.27 3.79 6.79 3.79 7.11 4.11
               L10.57 7.57
               C10.89 7.89 10.89 8.41 10.57 8.73
               L7.11 12.19
               C6.79 12.51 6.27 12.51 5.95 12.19
               C5.63 11.87 5.63 11.35 5.95 11.03
               L7.08 9.9
               H-2
               Z"></path>
    </mask>
  </defs>
  <rect width="16" height="16" fill="#5F636B" mask="url(#cloudArrowCutActionLight)"></rect>
</svg>
